<?xml version="1.0" standalone="no"?>
<!DOCTYPE svg PUBLIC "-//W3C//DTD SVG 20010904//EN"
 "http://www.w3.org/TR/2001/REC-SVG-20010904/DTD/svg10.dtd">
<svg version="1.0" xmlns="http://www.w3.org/2000/svg"
 width="700.000000pt" height="700.000000pt" viewBox="0 0 700.000000 700.000000"
 preserveAspectRatio="xMidYMid meet">
<metadata>
Created by potrace 1.14, written by Peter Selinger 2001-2017
</metadata>
<g transform="translate(0.000000,700.000000) scale(0.100000,-0.100000)"
fill="#000000" stroke="none">
<path d="M3240 6989 c-1192 -90 -2244 -773 -2822 -1831 -134 -247 -265 -593
-328 -873 -179 -793 -83 -1617 274 -2335 179 -360 373 -629 665 -921 402 -401
846 -676 1371 -849 933 -308 1950 -212 2800 262 292 163 525 341 771 587 290
291 484 559 661 913 187 377 299 760 350 1203 7 61 12 220 12 355 0 249 -9
371 -45 585 -99 590 -341 1127 -728 1615 -97 123 -399 425 -521 522 -710 564
-1577 834 -2460 767z m-152 -2919 c2 -204 -2 -457 -8 -573 -7 -115 -10 -210
-8 -213 3 -2 46 46 95 108 49 62 172 202 272 311 l183 197 210 0 c200 0 209
-1 196 -18 -7 -10 -128 -144 -268 -296 -140 -153 -255 -284 -254 -290 1 -6
128 -181 283 -389 154 -208 281 -380 281 -382 0 -3 -96 -5 -214 -5 l-215 0
-178 252 c-98 138 -188 262 -199 276 l-21 26 -76 -60 -76 -59 -1 -217 0 -218
-190 0 -190 0 0 960 0 960 188 -2 187 -3 3 -365z m1560 120 c1 -135 -1 -295
-6 -355 -5 -61 -7 -112 -5 -114 2 -2 27 23 57 55 97 108 209 150 376 142 86
-4 107 -9 172 -40 151 -73 248 -214 293 -426 34 -165 28 -397 -15 -548 -65
-226 -219 -377 -414 -403 -155 -22 -308 23 -410 119 -29 27 -57 50 -63 50 -6
0 -24 -33 -41 -72 l-30 -73 -146 -3 -146 -3 0 954 c0 525 3 957 7 961 4 3 88
5 187 4 l181 -3 3 -245z m-2542 -284 c77 -14 253 -67 283 -86 11 -6 3 -34 -43
-143 l-57 -134 -89 34 c-142 53 -202 65 -301 61 -106 -4 -142 -24 -147 -80 -6
-65 48 -104 263 -193 278 -114 369 -199 397 -369 22 -135 -22 -276 -112 -360
-107 -100 -243 -138 -490 -137 -162 0 -279 18 -385 58 l-50 19 -3 152 c-1 84
-1 152 2 152 2 0 57 -18 122 -40 317 -105 546 -87 546 45 0 71 -41 105 -243
196 -179 80 -262 126 -312 169 -135 119 -154 359 -40 508 52 68 175 131 300
152 80 13 273 11 359 -4z m3984 -1007 c51 -11 110 -52 131 -90 19 -36 28 -113
18 -163 -19 -101 -92 -155 -211 -156 -78 0 -112 11 -151 48 -56 53 -77 131
-57 216 19 84 66 130 150 147 52 10 64 10 120 -2z"/>
<path d="M4819 3606 c-60 -21 -96 -54 -123 -109 -35 -70 -46 -138 -46 -271 0
-290 65 -404 240 -423 117 -12 206 53 252 185 20 60 23 85 23 232 -1 149 -3
171 -24 224 -28 71 -82 133 -136 157 -47 22 -134 24 -186 5z"/>
</g>
</svg>
